# xmcd
#
# Track frame offsets: 
#        150
#        20685
#        37076
#        51575
#        69406
#        84026
#        98226
#        117651
#        132647
#        143570
#        151067
#
# Disc length: 2282 seconds
#
# Revision: 3
# Processed by: cddbd v1.5.2PL0 Copyright (c) Steve Scherf et al.
# Submitted via: ExactAudioCopyFreeDBPlugin 1.0
#
DISCID=9708e80b
DTITLE=The Bambi Molesters - As The Dark Wave Swells
DYEAR=2010
DGENRE=Surf
TTITLE0=As The Dark Wave Swells
TTITLE1=The Kiss-Off
TTITLE2=Wrong Turn
TTITLE3=Paint Of No Return
TTITLE4=Into The Crimson Sunset
TTITLE5=Panic Party
TTITLE6=Lazy Girls Hangout
TTITLE7=Siboney
TTITLE8=Mindbender
TTITLE9=Thunderin' Guitar
TTITLE10=Rising East
EXTD=
EXTT0=
EXTT1=
EXTT2=
EXTT3=
EXTT4=
EXTT5=
EXTT6=
EXTT7=
EXTT8=
EXTT9=
EXTT10=
PLAYORDER=
